Coordinates
nRows=107
nColumns=2
inDegrees=yes
endheader
time	ankle_angle_r	
3.57863	 -5.004906	
3.6502	 -5.030207	
3.72177	 -5.022591	
3.79335	 -5.041516	
3.86492	 -5.036258	
3.93649	 -5.010290	
4.00806	 -5.026466	
4.07964	 -5.044059	
4.15121	 -5.028586	
4.22278	 -5.014863	
4.29435	 -5.028203	
4.36593	 -5.021835	
4.4375	 -4.999533	
4.50907	 -4.979826	
4.58065	 -4.951998	
4.65222	 -4.960140	
4.72379	 -4.974028	
4.79536	 -4.957527	
4.86694	 -4.956373	
4.93851	 -4.989697	
5.01008	 -5.004686	
5.08165	 -4.962506	
5.15323	 -4.949768	
5.2248	 -4.978888	
5.29637	 -4.967694	
5.36794	 -4.954580	
5.43952	 -4.984241	
5.51109	 -5.012693	
5.58266	 -4.996129	
5.65423	 -4.957059	
5.72581	 -4.947088	
5.79738	 -4.955581	
5.86895	 -4.928120	
5.94052	 -4.901374	
6.0121	 -4.924600	
6.08367	 -4.935567	
6.15524	 -4.952351	
6.22681	 -4.984923	
6.29839	 -4.993137	
6.36996	 -5.023597	
6.44153	 -5.027713	
6.5131	 -4.989189	
6.58468	 -5.001854	
6.65625	 -5.044118	
6.72782	 -5.036840	
6.7994	 -5.016668	
6.87097	 -5.047976	
6.94254	 -5.055827	
7.01411	 -5.024071	
7.08569	 -5.013739	
7.15726	 -5.021889	
7.22883	 -5.029394	
7.3004	 -4.992854	
7.37198	 -4.976202	
7.44355	 -4.992251	
7.51512	 -4.966384	
7.58669	 -4.955065	
7.65827	 -4.946668	
7.72984	 -4.957981	
7.80141	 -5.014521	
7.87298	 -5.011834	
7.94456	 -4.991655	
8.01613	 -5.026960	
8.0877	 -5.043376	
8.15927	 -5.012864	
8.23085	 -5.001031	
8.30242	 -5.018922	
8.37399	 -5.043240	
8.44556	 -5.036403	
8.51714	 -4.997547	
8.58871	 -5.026255	
8.66028	 -5.067515	
8.73185	 -5.012358	
8.80343	 -4.946276	
8.875	 -4.956753	
8.94657	 -4.984823	
9.01815	 -4.947370	
9.08972	 -4.924489	
9.16129	 -4.978603	
9.23286	 -4.998474	
9.30444	 -4.941889	
9.37601	 -4.940396	
9.44758	 -5.007910	
9.51915	 -4.997317	
9.59073	 -4.972718	
9.6623	 -4.986949	
9.73387	 -4.968059	
9.80544	 -4.964180	
9.87702	 -4.951896	
9.94859	 -4.932279	
10.0202	 -4.962073	
10.0917	 -4.992192	
10.1633	 -4.970080	
10.2349	 -4.932938	
10.3065	 -4.976169	
10.378	 -5.031406	
10.4496	 -5.004850	
10.5212	 -4.981882	
10.5927	 -5.009696	
10.6643	 -5.027178	
10.7359	 -5.005986	
10.8075	 -4.995639	
10.879	 -5.027224	
10.9506	 -5.058217	
11.0222	 -5.034252	
11.0937	 -5.004981	
11.1653	 -5.053676	
